<svg width="74" height="33" viewBox="0 0 74 33" fill="none" xmlns="http://www.w3.org/2000/svg">
<g clip-path="url(#clip0_3_81)">
<path d="M58.4844 0.5H15.5164C6.94661 0.5 0 7.63802 0 16.5004C0 25.362 6.94661 32.5008 15.5164 32.5008H58.4844C67.0534 32.5008 74.0008 25.3627 74.0008 16.5004C74.0001 7.63802 67.0534 0.5 58.4844 0.5Z" fill="#0F9D58"/>
<path d="M58.0573 30.167C65.5802 30.167 71.6787 24.0483 71.6787 16.5005C71.6787 8.95264 65.5802 2.83392 58.0573 2.83392C50.5345 2.83392 44.436 8.95264 44.436 16.5005C44.436 24.0483 50.5345 30.167 58.0573 30.167Z" fill="white"/>
<path d="M58.0957 11.3986H56.2818C56.1753 11.3986 56.1086 11.4743 56.1086 11.5958V21.2281C56.1086 21.3495 56.1753 21.4253 56.2818 21.4253H58.0957C58.2023 21.4253 58.269 21.3495 58.269 21.2281V11.5958C58.269 11.4743 58.2023 11.3986 58.0957 11.3986Z" fill="#64748B"/>
<path d="M62.7275 11.5531C62.6877 11.4466 62.634 11.4009 62.5274 11.4009H62.5231H60.1532H60.1489C60.0423 11.4009 59.9756 11.4766 59.9756 11.5981V21.2259C59.9756 21.3473 60.0423 21.423 60.1489 21.423H60.1532H61.9533H61.9627C62.0693 21.423 62.136 21.3473 62.136 21.2259V17.3454C62.136 17.0252 62.1331 16.7396 62.1273 16.4689V14.4335L62.1816 14.5069L63.2328 16.9218H63.2336L63.2343 16.9015L63.9571 18.5007C64.1702 19.0015 64.6588 20.1883 65.2576 21.2724C65.312 21.3713 65.3512 21.4245 65.4577 21.4245H67.8313C67.9378 21.4245 68.0045 21.3488 68.0045 21.2274V11.5981C68.0045 11.4766 67.9378 11.4009 67.8313 11.4009H66.0312C65.9246 11.4009 65.8579 11.4766 65.8579 11.5981V12.5382V18.3912L65.8035 18.3177L64.7523 15.9029H64.7516" fill="#64748B"/>
<path d="M54.8863 11.3971H48.4711C48.3645 11.3971 48.2979 11.4728 48.2979 11.5943V21.2266C48.2979 21.3481 48.3645 21.4238 48.4711 21.4238H50.285C50.3915 21.4238 50.4582 21.3481 50.4582 21.2266V18.2143H53.859C53.9656 18.2143 54.0323 18.1385 54.0323 18.0171V16.184C54.0323 16.0626 53.9656 15.9779 53.859 15.9779L50.4582 15.9869V13.569L54.4194 13.5818C54.5129 13.5818 54.5796 13.4948 54.6065 13.3891L55.0335 11.6243C55.0596 11.4878 55.0059 11.3971 54.8863 11.3971Z" fill="#64748B"/>
<path d="M22.8827 21.2663C22.8827 21.3878 22.816 21.4635 22.7094 21.4635H20.8956C20.789 21.4635 20.7223 21.3878 20.7223 21.2663V11.571C20.7223 11.4496 20.789 11.3738 20.8956 11.3738H22.7094C22.816 11.3738 22.8827 11.4496 22.8827 11.571V21.2663Z" fill="white"/>
<path d="M26.9258 17.1646C25.0989 16.3909 24.4319 15.6322 24.4319 13.9783C24.4319 11.9909 25.7521 11.2359 27.8595 11.2359C28.6331 11.2359 29.353 11.3873 29.9931 11.6303L30.8732 11.9639C30.9936 12.0096 31.0197 12.0853 30.9936 12.2068L30.4469 13.5383C30.4071 13.6597 30.3404 13.7055 30.2338 13.6597L29.4472 13.3868C28.9136 13.2046 28.4069 13.0682 27.8603 13.0682C27.1135 13.0682 26.6068 13.4326 26.6068 13.9791C26.6068 14.5099 27.02 14.7528 27.7805 15.0714L28.9006 15.5415C30.7543 16.3309 31.4213 17.1196 31.4213 18.7735C31.4213 20.8525 30.1809 21.7761 27.9132 21.7761C27.1128 21.7761 26.3929 21.6854 25.2859 21.2753L24.4058 20.9567C24.2855 20.9109 24.2594 20.8352 24.2855 20.7138L24.819 19.2136C24.8589 19.0921 24.9256 19.0464 25.0322 19.0921L25.9659 19.4108C26.7525 19.6837 27.3397 19.7751 27.9132 19.7751C28.6331 19.7751 29.2471 19.578 29.2471 18.7735C29.2471 18.3184 28.7802 17.9691 28.0466 17.6504L26.9258 17.1646Z" fill="white"/>
<path d="M40.5755 21.228C40.5755 21.3495 40.5088 21.4252 40.4023 21.4252H38.6014C38.4949 21.4252 38.4282 21.3495 38.4282 21.228V17.3325H34.9607V21.228C34.9607 21.3495 34.894 21.4252 34.7874 21.4252H32.9736C32.867 21.4252 32.8003 21.3495 32.8003 21.228V11.6002C32.8003 11.4788 32.867 11.403 32.9736 11.403H34.7874C34.894 11.403 34.9607 11.4788 34.9607 11.6002V15.1928H38.4282V11.6002C38.4282 11.4788 38.4949 11.403 38.6014 11.403H40.4023C40.5088 11.403 40.5755 11.4788 40.5755 11.6002V21.228Z" fill="white"/>
<path d="M19.297 11.4001H17.4564C17.3498 11.4001 17.2831 11.4608 17.2563 11.5673L16.3638 15.2986C16.2935 15.618 16.2268 15.9651 16.1645 16.3205L15.7208 18.4242L15.272 16.4307C15.1974 16.0348 15.1162 15.6472 15.0299 15.2963L14.7805 14.2482C14.5449 13.2181 14.3477 12.5989 14.1773 11.5823C14.1643 11.4608 14.0976 11.4001 13.9903 11.4001H13.9294H11.5486H11.4877C11.3812 11.4001 11.3145 11.4608 11.3007 11.5823C11.1296 12.5989 10.9331 13.2181 10.6975 14.2482L10.4481 15.2963C10.3619 15.648 10.2807 16.0356 10.206 16.4307L9.75724 18.4242L9.31357 16.3205C9.25122 15.9651 9.1838 15.6172 9.1142 15.2986L8.22177 11.5673C8.19495 11.4608 8.12825 11.4001 8.02168 11.4001H6.181C6.06066 11.4001 5.99396 11.4908 6.03456 11.6123L7.67515 18.5276C7.91511 19.5742 8.1152 20.2085 8.28847 21.2401C8.30152 21.3615 8.36821 21.4223 8.47551 21.4223H10.9165C10.9172 21.4223 10.9179 21.4215 10.9194 21.4215H11.0354C11.1419 21.4215 11.2086 21.3608 11.2354 21.2543L12.1279 17.523C12.1982 17.2036 12.2649 16.8565 12.3272 16.5011L12.7397 14.5474L13.1522 16.5011C13.2146 16.8565 13.282 17.2044 13.3516 17.523L14.244 21.2543C14.2709 21.3608 14.3376 21.4215 14.4441 21.4215H14.5601L14.563 21.4223H17.004C17.1106 21.4223 17.1772 21.3615 17.191 21.2401C17.3643 20.2085 17.5644 19.575 17.8043 18.5276L19.4449 11.6123C19.4834 11.4916 19.4167 11.4001 19.297 11.4001Z" fill="white"/>
</g>
<defs>
<clipPath id="clip0_3_81">
<rect width="74" height="32" fill="white" transform="translate(0 0.5)"/>
</clipPath>
</defs>
</svg>
